# xmcd
#
# Track frame offsets:
#	150
#	7949
#	19681
#	31644
#	42047
#	56802
#	68209
#	79258
#	117194
#	133309
#	137853
#	155028
#	164754
#	170122
#	175712
#	187350
#
# Disc length: 2942 seconds
#
# Revision: 0
# Processed by: cddbd v1.5.2PL0 Copyright (c) Steve Scherf et al.
# Submitted via: EZCDAudioConverter 8.3.2.1
#
DISCID=e20b7c10
DTITLE=Ύμνοι της Παναγίας-Π. Γαϊτάνος
DYEAR=2009
DGENRE=Βυζ. Εκκλησιαστική
TTITLE0=Γαϊτάνος Πέτρος - Η γέννησίς Σου Θεοτόκε [ιδιόμ., κεκραγ. εσπερινού, π
TTITLE0=οίηση Σργίου, πλ. β']
TTITLE1=Γαϊτάνος Πέτρος - Σήμερον ο τοις νοεροίς θρόνοις [δοξαστικό αίνων, ποί
TTITLE1=ηση Σργίου, πλ. β']
TTITLE2=Γαϊτάνος Πέτρος - Αύτη ημέρα Κυρίου [δοξαστικό αίνων, ποίηση Σργίου, π
TTITLE2=λ. β']
TTITLE3=Γαϊτάνος Πέτρος - Σήμερον της ευδοκίας [απολυτίκιον, ήχ. δ']
TTITLE4=Γαϊτάνος Πέτρος-χορωδία - Τη Υπερμάχω [κοντάκιον, πλ. δ']
TTITLE5=Γαϊτάνος Πέτρος - Ω του παραδόξου θαύματος
TTITLE6=Γαϊτάνος Πέτρος - Την Σην δοξάζουσιν κοίμησιν [προσόμοια εσπερινού, ήχ
TTITLE6=α']
TTITLE7=Γαϊτάνος Πέτρος - Θεαρχίω νεύματι [δοξαστ. κεκραγαρίων εσπερινού, οκτά
TTITLE7=ηχον]
TTITLE8=Γαϊτάνος Πέτρος - Τη αθανάτω Σου κοιμήσει [δοξαστικό των αίνων, πλ. β'
TTITLE8=]
TTITLE9=Γαϊτάνος Πέτρος-χορωδία - Εν τη γεννήσει την παρθενίαν [απολυτίκιον, ή
TTITLE9=χ. α']
TTITLE10=Γαϊτάνος Πέτρος - Άξιον εστίν [πατριαρχικό, Ιακώβου Πρωτοψάλτου, πλ. 
TTITLE10=α']
TTITLE11=Γαϊτάνος Πέτρος - Παναγία Δέσποινα [ανέκδοτον αδελφ. Δανιηλαίων κ Θωμ
TTITLE11=άδων, βαρύς]
TTITLE12=Γαϊτάνος Πέτρος - Ο γλυκασμός των Αγγέλων
TTITLE13=Γαϊτάνος Πέτρος - Και Σε μεσίτριαν έχω [εξαποστειλάρια μικ. κ μεγ. πα
TTITLE13=ρακλ. κανόνα, ήχ. γ']
TTITLE14=Γαϊτάνος Πέτρος - Την ωραιότητα της παρθενίας Σου [κάθισμα, ήχ. γ']
TTITLE15=Γαϊτάνος Πέτρος - Προς τίνα καταφύγω άλλην αγνή [καλοφ. ειρμός σύνθ. 
TTITLE15=Εμμ. Χατζημάρκος, α']
EXTD=
EXTT0=
EXTT1=
EXTT2=
EXTT3=
EXTT4=
EXTT5=
EXTT6=
EXTT7=
EXTT8=
EXTT9=
EXTT10=
EXTT11=
EXTT12=
EXTT13=
EXTT14=
EXTT15=
PLAYORDER=
